<svg width="20" height="20" viewBox="0 0 20 20" fill="none" xmlns="http://www.w3.org/2000/svg">
<rect width="20" height="20" rx="10" fill="#404045"/>
<path fill-rule="evenodd" clip-rule="evenodd" d="M13.094 13.9779C13.3381 14.2219 13.7338 14.2219 13.9779 13.9779C14.2219 13.7338 14.2219 13.338 13.9779 13.094L10.8843 10.0004L13.9779 6.90682C14.2219 6.66274 14.2219 6.26702 13.9779 6.02294C13.7338 5.77886 13.338 5.77886 13.094 6.02294L10.0004 9.11651L6.90679 6.0229C6.66271 5.77882 6.26699 5.77882 6.02291 6.0229C5.77883 6.26698 5.77883 6.66271 6.02291 6.90679L9.11652 10.0004L6.0229 13.094C5.77882 13.3381 5.77882 13.7338 6.0229 13.9779C6.26698 14.222 6.66271 14.222 6.90679 13.9779L10.0004 10.8843L13.094 13.9779Z" fill="white" fill-opacity="0.9"/>
</svg>
