<svg width="25" height="24" viewBox="0 0 25 24" fill="none" xmlns="http://www.w3.org/2000/svg">
<path fill-rule="evenodd" clip-rule="evenodd" d="M12.25 11C13.9069 11 15.25 9.65685 15.25 8C15.25 6.34315 13.9069 5 12.25 5C10.5931 5 9.25 6.34315 9.25 8C9.25 9.65685 10.5931 11 12.25 11ZM12.25 19C15.5637 19 18.25 17.6569 18.25 16C18.25 14.3431 15.5637 13 12.25 13C8.93629 13 6.25 14.3431 6.25 16C6.25 17.6569 8.93629 19 12.25 19ZM6.63165 13.019C4.16199 13.1713 2.25 14.2241 2.25 15.5001C2.25 16.5521 3.54949 17.4523 5.38963 17.8213C4.97843 17.2645 4.75 16.6483 4.75 16.0001C4.75 14.8567 5.46076 13.8129 6.63165 13.019ZM19.7501 16.0001C19.7501 16.6483 19.5216 17.2645 19.1104 17.8213C20.9506 17.4523 22.2501 16.5521 22.2501 15.5001C22.2501 14.2241 20.3381 13.1713 17.8684 13.019C19.0393 13.8129 19.7501 14.8567 19.7501 16.0001ZM15.9683 10.5354C16.4615 9.8134 16.75 8.94039 16.75 8C16.75 7.68794 16.7182 7.3833 16.6577 7.08914C16.8449 7.0312 17.0438 7 17.25 7C18.3545 7 19.25 7.89543 19.25 9C19.25 10.1046 18.3545 11 17.25 11C16.7623 11 16.3153 10.8254 15.9683 10.5354ZM7.25 7C7.45619 7 7.65509 7.0312 7.84223 7.08914C7.78176 7.3833 7.75 7.68794 7.75 8C7.75 8.94039 8.03845 9.8134 8.53171 10.5354C8.18462 10.8254 7.7377 11 7.25 11C6.14543 11 5.25 10.1046 5.25 9C5.25 7.89543 6.14543 7 7.25 7Z" fill="#009874"/>
</svg>
