<svg width="111" height="90" viewBox="0 0 111 90" fill="none" xmlns="http://www.w3.org/2000/svg">
<g filter="url(#filter0_d_1105_32165)">
<path d="M65.4206 56.3346H37.2162C36.0136 56.3346 35.04 55.3611 35.04 54.1584V15.474C35.04 14.2714 36.0136 13.2979 37.2162 13.2979H65.4206C66.6232 13.2979 67.5968 14.2714 67.5968 15.474V54.1584C67.5968 55.3611 66.6232 56.3346 65.4206 56.3346Z" fill="#7C7C83"/>
</g>
<path d="M54.9827 45.8975H47.6524C46.8363 45.8975 46.1777 45.239 46.1777 44.4229C46.1777 43.6068 46.8363 42.9482 47.6524 42.9482H54.9827C55.7987 42.9482 56.4573 43.6068 56.4573 44.4229C56.4573 45.239 55.7987 45.8975 54.9827 45.8975Z" fill="#A9AFC3"/>
<path d="M58.3477 49.0902H44.2741C43.8446 49.0902 43.501 48.7466 43.501 48.3171C43.501 47.8876 43.8446 47.5439 44.2741 47.5439H58.3477C58.7772 47.5439 59.1208 47.8876 59.1208 48.3171C59.1208 48.7323 58.7772 49.0902 58.3477 49.0902Z" fill="#A9AFC3"/>
<path d="M60.9383 28.6461C60.9383 31.5381 59.6641 34.1295 57.6454 35.8904C55.956 37.3651 53.7369 38.2527 51.3173 38.2527C48.8977 38.2527 46.6786 37.3651 44.9892 35.8761C42.9705 34.1151 41.6963 31.5238 41.6963 28.6317C41.6963 23.3201 46.0057 19.0107 51.3173 19.0107C56.6289 19.0107 60.9383 23.3345 60.9383 28.6461Z" fill="#B5B5BA"/>
<path d="M57.6464 35.8902C55.957 37.3648 53.7379 38.2525 51.3183 38.2525C48.8988 38.2525 46.6796 37.3648 44.9902 35.8759C45.6918 35.6039 46.6081 35.2459 47.8393 34.7448C48.1257 34.6303 48.3404 34.4156 48.4693 34.1435C48.5408 33.986 48.5695 33.8286 48.5695 33.6568V31.3517C48.5265 31.3088 48.4979 31.2515 48.4693 31.2086C48.2688 30.9079 48.14 30.5643 48.097 30.2064L47.8966 30.1061C47.3096 30.2493 47.3525 29.6194 47.195 28.4024C47.1378 27.9013 47.2094 27.8011 47.4384 27.7152L47.6246 27.4575C46.4792 24.8805 47.0519 23.2626 48.1829 22.69C47.8107 21.8739 47.782 21.5732 47.782 21.5732C47.782 21.5732 50.1873 21.9741 51.0034 21.8166C52.0485 21.6019 53.6663 21.8596 54.2676 23.2483C55.2698 23.6349 55.6564 24.2791 55.7423 24.952C55.8282 25.582 55.6421 26.2692 55.4559 26.7989C55.4416 26.8419 55.4273 26.8705 55.413 26.8991C55.413 26.9135 55.3987 26.9278 55.3987 26.9421C55.37 27.0137 55.3557 27.071 55.3271 27.1282C55.3128 27.1569 55.3128 27.1855 55.2984 27.2141C55.2841 27.2714 55.2555 27.3287 55.2412 27.3716C55.2412 27.3859 55.2412 27.3859 55.2269 27.4002C55.2125 27.4432 55.1982 27.4861 55.1839 27.5291C55.1696 27.5864 55.1553 27.6293 55.141 27.6723C55.1553 27.6866 55.1553 27.7152 55.1696 27.7295C55.3271 27.8011 55.3843 27.9443 55.3271 28.3881C55.1839 29.5478 55.2269 30.2493 54.6255 30.0918L54.0958 31.0081C54.0815 31.1083 54.0672 31.1656 54.0529 31.2229C54.0386 31.3947 54.0386 31.7383 54.0386 33.6281C54.0386 33.8572 54.1101 34.0719 54.2247 34.2581C54.3535 34.4585 54.5396 34.6303 54.7687 34.7305C54.7687 34.7305 54.783 34.7305 54.783 34.7448C56.0286 35.2746 56.9449 35.6182 57.6464 35.8902Z" fill="#8D93A6"/>
<path d="M55.1535 27.6866C55.1965 27.4002 55.0676 27.028 54.9674 26.7846C54.9531 26.7417 54.9245 26.6987 54.9102 26.6558C54.452 25.7395 53.4212 25.3529 52.4476 25.2956C49.9565 25.1668 49.7131 25.6393 48.94 24.9234C49.1834 25.2813 49.1977 25.8683 48.8255 26.5842C48.5678 27.0853 48.0667 27.3143 47.6085 27.4575C46.4632 24.8805 47.0358 23.2626 48.1669 22.69C47.7946 21.8739 47.766 21.5732 47.766 21.5732C47.766 21.5732 50.1713 21.9741 50.9873 21.8166C52.0325 21.6019 53.6503 21.8596 54.2516 23.2483C55.2538 23.6349 55.6403 24.2791 55.7262 24.952C55.898 26.0258 55.2681 27.2141 55.1535 27.6866Z" fill="#292D35"/>
<path d="M54.2391 34.2867V34.7306H48.4551V34.1436C48.5267 33.9861 48.5553 33.8286 48.5553 33.6568V31.3518C48.5123 31.3088 48.4837 31.2516 48.4551 31.2086V31.0654C48.5839 31.2802 48.7414 31.4663 48.9275 31.6381L50.7315 32.9123C51.1467 33.2702 51.7623 33.2702 52.1918 32.9266L53.8812 31.409C53.9385 31.3661 53.9957 31.3088 54.053 31.2516C54.0387 31.4234 54.0387 31.767 54.0387 33.6568C54.0673 33.8859 54.1246 34.1006 54.2391 34.2867Z" fill="url(#paint0_linear_1105_32165)"/>
<g filter="url(#filter1_d_1105_32165)">
<path d="M27.1078 49.6781H8.96817C7.76555 49.6781 6.79199 48.7045 6.79199 47.5019V22.1322C6.79199 20.9296 7.76555 19.9561 8.96817 19.9561H27.1078C28.3104 19.9561 29.2839 20.9296 29.2839 22.1322V47.5162C29.2839 48.7188 28.3104 49.6781 27.1078 49.6781Z" fill="#404045"/>
</g>
<path d="M20.5652 42.4764H15.497C14.9386 42.4764 14.4805 42.0182 14.4805 41.4599C14.4805 40.9015 14.9386 40.4434 15.497 40.4434H20.5652C21.1235 40.4434 21.5817 40.9015 21.5817 41.4599C21.5817 42.0182 21.1235 42.4764 20.5652 42.4764Z" fill="#8E94A7"/>
<path d="M22.8994 44.6805H13.1782C12.8775 44.6805 12.6484 44.4372 12.6484 44.1508C12.6484 43.8502 12.8918 43.6211 13.1782 43.6211H22.8994C23.2 43.6211 23.4291 43.8645 23.4291 44.1508C23.4291 44.4372 23.1857 44.6805 22.8994 44.6805Z" fill="#8E94A7"/>
<path d="M24.6738 30.5503C24.6738 32.5547 23.7862 34.3443 22.3974 35.5612C21.2234 36.5777 19.7058 37.1934 18.0308 37.1934C16.3557 37.1934 14.8238 36.5777 13.6641 35.5612C12.2753 34.3443 11.3877 32.5547 11.3877 30.5503C11.3877 26.8852 14.3656 23.9072 18.0308 23.9072C21.6959 23.9072 24.6738 26.8852 24.6738 30.5503Z" fill="#7C7C83"/>
<path d="M22.3974 35.5613C21.2234 36.5778 19.7058 37.1935 18.0307 37.1935C16.3557 37.1935 14.8237 36.5778 13.6641 35.5613C14.1508 35.3752 14.7808 35.1318 15.6255 34.7739C15.8259 34.688 15.9691 34.5448 16.055 34.3587C16.0979 34.2585 16.1266 34.1439 16.1266 34.0151V32.4259C16.0979 32.3973 16.0693 32.3543 16.055 32.3257C15.9118 32.1253 15.8259 31.8819 15.7973 31.6385L15.6541 31.5669C15.2532 31.6671 15.2819 31.2233 15.1673 30.3929C15.1244 30.0493 15.1817 29.9777 15.3248 29.9204L15.4537 29.7486C14.6662 27.959 15.0671 26.8423 15.8402 26.4557C15.5825 25.8974 15.5682 25.6826 15.5682 25.6826C15.5682 25.6826 17.229 25.9546 17.8017 25.8544C18.5318 25.7113 19.6342 25.8831 20.0494 26.8423C20.7366 27.1143 21.0087 27.5581 21.0659 28.0163C21.1232 28.4601 20.9943 28.9183 20.8798 29.2905C20.8655 29.3191 20.8655 29.3334 20.8512 29.3621C20.8512 29.3764 20.8369 29.3764 20.8369 29.3907C20.8225 29.4337 20.8082 29.4766 20.7939 29.5196C20.7796 29.5339 20.7796 29.5625 20.7653 29.5768C20.751 29.6198 20.7366 29.6484 20.7223 29.6914V29.7057C20.708 29.7343 20.6937 29.763 20.6937 29.7916C20.6794 29.8345 20.6651 29.8632 20.6651 29.8918C20.6794 29.9061 20.6794 29.9204 20.6794 29.9348C20.7939 29.992 20.8225 30.0779 20.7796 30.3786C20.6794 31.1803 20.708 31.6671 20.2928 31.5526L19.9349 32.1968C19.9206 32.2684 19.9063 32.2971 19.9063 32.3543C19.8919 32.4689 19.8919 32.7122 19.8919 34.0151C19.8919 34.1726 19.9349 34.3157 20.0208 34.4446C20.1067 34.5878 20.2355 34.7023 20.393 34.7596H20.4074C21.295 35.1318 21.9249 35.3752 22.3974 35.5613Z" fill="#8E94A7"/>
<path d="M20.6931 29.8915C20.7217 29.691 20.6358 29.4476 20.5642 29.2615C20.5499 29.2329 20.5356 29.2043 20.5213 29.1756C20.2063 28.5457 19.4905 28.2737 18.8176 28.245C17.0995 28.1591 16.9277 28.4884 16.398 27.9873C16.5698 28.245 16.5841 28.6316 16.3264 29.1327C16.1403 29.4763 15.7967 29.6338 15.496 29.734C14.7086 27.9444 15.1095 26.8276 15.8826 26.4411C15.6249 25.8827 15.6106 25.668 15.6106 25.668C15.6106 25.668 17.2713 25.94 17.844 25.8398C18.5742 25.6966 19.6766 25.8684 20.0918 26.8276C20.779 27.0997 21.051 27.5435 21.1083 28.0016C21.1942 28.7461 20.7647 29.5622 20.6931 29.8915Z" fill="#292D35"/>
<path d="M20.0628 34.4584V34.7734H16.0684V34.3582C16.1113 34.2579 16.1399 34.1434 16.1399 34.0146V32.4254C16.1113 32.3967 16.0827 32.3538 16.0684 32.3252V32.2393C16.1543 32.3824 16.2688 32.5256 16.3976 32.6258L17.6432 33.4991C17.9296 33.7425 18.3591 33.7569 18.6597 33.5135L19.8337 32.4683C19.8767 32.4397 19.9196 32.3967 19.9483 32.3538C19.9339 32.4683 19.9339 32.7117 19.9339 34.0146C19.9339 34.172 19.9769 34.3295 20.0628 34.4584Z" fill="url(#paint1_linear_1105_32165)"/>
<g filter="url(#filter2_d_1105_32165)">
<path d="M93.2376 49.6781H75.0981C73.8954 49.6781 72.9219 48.7045 72.9219 47.5019V22.1322C72.9219 20.9296 73.8954 19.9561 75.0981 19.9561H93.2376C94.4403 19.9561 95.4138 20.9296 95.4138 22.1322V47.5162C95.4138 48.7188 94.4403 49.6781 93.2376 49.6781Z" fill="#404045"/>
</g>
<path d="M86.6941 42.4764H81.6259C81.0675 42.4764 80.6094 42.0182 80.6094 41.4599C80.6094 40.9015 81.0675 40.4434 81.6259 40.4434H86.6941C87.2524 40.4434 87.7106 40.9015 87.7106 41.4599C87.7249 42.0182 87.2668 42.4764 86.6941 42.4764Z" fill="#8E94A7"/>
<path d="M89.0283 44.6805H79.3071C79.0064 44.6805 78.7773 44.4372 78.7773 44.1508C78.7773 43.8502 79.0207 43.6211 79.3071 43.6211H89.0283C89.3289 43.6211 89.558 43.8645 89.558 44.1508C89.558 44.4372 89.3289 44.6805 89.0283 44.6805Z" fill="#8E94A7"/>
<path d="M90.8174 30.5503C90.8174 32.5547 89.9297 34.3443 88.541 35.5612C87.367 36.5777 85.8494 37.1934 84.1743 37.1934C82.4992 37.1934 80.9673 36.5777 79.8076 35.5612C78.4189 34.3443 77.5312 32.5547 77.5312 30.5503C77.5312 26.8852 80.5092 23.9072 84.1743 23.9072C87.8395 23.9072 90.8174 26.8852 90.8174 30.5503Z" fill="#7C7C83"/>
<path d="M88.5429 35.5613C87.3689 36.5778 85.8513 37.1935 84.1762 37.1935C82.5012 37.1935 80.9692 36.5778 79.8096 35.5613C80.2963 35.3752 80.9263 35.1318 81.771 34.7739C81.9714 34.688 82.1146 34.5448 82.2005 34.3587C82.2435 34.2585 82.2721 34.1439 82.2721 34.0151V32.4259C82.2435 32.3973 82.2148 32.3543 82.2005 32.3257C82.0573 32.1252 81.9714 31.8819 81.9428 31.6385L81.7996 31.5669C81.3988 31.6671 81.4274 31.2233 81.3129 30.3929C81.2699 30.0493 81.3272 29.9777 81.4703 29.9204L81.5992 29.7486C80.8118 27.959 81.2126 26.8423 81.9857 26.4557C81.728 25.8974 81.7137 25.6826 81.7137 25.6826C81.7137 25.6826 83.3745 25.9546 83.9472 25.8544C84.6773 25.7113 85.7797 25.8831 86.1949 26.8423C86.8821 27.1143 87.1542 27.5581 87.2114 28.0163C87.2687 28.4601 87.1399 28.9183 87.0253 29.2905C87.011 29.3191 87.011 29.3334 86.9967 29.3621C86.9967 29.3764 86.9824 29.3764 86.9824 29.3907C86.968 29.4337 86.9537 29.4766 86.9394 29.5196C86.9251 29.5339 86.9251 29.5625 86.9108 29.5768C86.8965 29.6198 86.8821 29.6484 86.8678 29.6914V29.7057C86.8535 29.7343 86.8392 29.763 86.8392 29.7916C86.8249 29.8345 86.8106 29.8632 86.8106 29.8918C86.8249 29.9061 86.8249 29.9204 86.8249 29.9348C86.9394 29.992 86.9681 30.0779 86.9251 30.3786C86.8249 31.1803 86.8535 31.6671 86.4383 31.5526L86.0804 32.1968C86.0661 32.2684 86.0518 32.2971 86.0518 32.3543C86.0374 32.4689 86.0374 32.7122 86.0374 34.0151C86.0374 34.1726 86.0804 34.3157 86.1663 34.4446C86.2522 34.5878 86.3811 34.7023 86.5385 34.7596H86.5529C87.4262 35.1318 88.0561 35.3752 88.5429 35.5613Z" fill="#8E94A7"/>
<path d="M86.8249 29.8915C86.8536 29.691 86.7677 29.4476 86.6961 29.2615C86.6818 29.2329 86.6674 29.2043 86.6531 29.1756C86.3382 28.5457 85.6223 28.2737 84.9494 28.245C83.2314 28.1591 83.0596 28.4884 82.5298 27.9873C82.7016 28.245 82.716 28.6316 82.4583 29.1327C82.2721 29.4763 81.9285 29.6338 81.6279 29.734C80.8404 27.9444 81.2413 26.8276 82.0144 26.4411C81.7567 25.8827 81.7424 25.668 81.7424 25.668C81.7424 25.668 83.4032 25.94 83.9759 25.8398C84.706 25.6966 85.8084 25.8684 86.2236 26.8276C86.9108 27.0997 87.1829 27.5435 87.2401 28.0016C87.326 28.7461 86.9108 29.5622 86.8249 29.8915Z" fill="#292D35"/>
<path d="M86.1946 34.4584V34.7734H82.2002V34.3582C82.2431 34.2579 82.2718 34.1434 82.2718 34.0146V32.4254C82.2431 32.3967 82.2145 32.3538 82.2002 32.3252V32.2393C82.2861 32.3824 82.4006 32.5256 82.5295 32.6258L83.7751 33.4991C84.0614 33.7425 84.4909 33.7569 84.7916 33.5135L85.9656 32.4683C86.0085 32.4397 86.0515 32.3967 86.0801 32.3538C86.0658 32.4683 86.0658 32.7117 86.0658 34.0146C86.0658 34.172 86.1087 34.3295 86.1946 34.4584Z" fill="url(#paint2_linear_1105_32165)"/>
<path d="M89.8444 76.98L71.7334 58.8834L75.8853 54.7314L93.982 72.8424L89.8444 76.98Z" fill="#7C7C83"/>
<path d="M98.8637 86.0709L84.9762 72.1834C83.8165 71.0238 83.8165 69.1339 84.9762 67.9742C86.1359 66.8146 88.0257 66.8146 89.1854 67.9742L103.073 81.8617C104.233 83.0214 104.233 84.9112 103.073 86.0709C101.913 87.2306 100.023 87.2306 98.8637 86.0709Z" fill="#7C7C83"/>
<path d="M97.8772 86.959L80.0096 69.0914C79.5944 68.6762 79.5944 68.0033 80.0096 67.5738L84.5767 63.0067C84.9919 62.5915 85.6648 62.5915 86.0943 63.0067L103.962 80.8743C104.377 81.2895 104.377 81.9624 103.962 82.3919L99.3948 86.959C98.9653 87.3742 98.2924 87.3742 97.8772 86.959Z" fill="#59595F"/>
<path d="M51.2318 0.570312C32.2762 0.570312 16.9141 15.9324 16.9141 34.8881C16.9141 53.8294 32.2762 69.2058 51.2175 69.2058C70.1731 69.2058 85.5352 53.8437 85.5352 34.8881C85.5352 15.9324 70.1731 0.570312 51.2318 0.570312ZM51.2318 62.8491C36.0129 62.8491 23.686 50.3217 23.686 34.8737C23.686 19.4257 36.0129 6.91272 51.2318 6.91272C66.4507 6.91272 78.7776 19.4401 78.7776 34.8881C78.7776 50.3361 66.4364 62.8491 51.2318 62.8491Z" fill="#59595F"/>
<defs>
<filter id="filter0_d_1105_32165" x="13.04" y="2.29785" width="76.5566" height="87.0371" filterUnits="userSpaceOnUse" color-interpolation-filters="sRGB">
<feFlood flood-opacity="0" result="BackgroundImageFix"/>
<feColorMatrix in="SourceAlpha" type="matrix" values="0 0 0 0 0 0 0 0 0 0 0 0 0 0 0 0 0 0 127 0" result="hardAlpha"/>
<feOffset dy="11"/>
<feGaussianBlur stdDeviation="11"/>
<feColorMatrix type="matrix" values="0 0 0 0 0 0 0 0 0 0 0 0 0 0 0 0 0 0 0.27 0"/>
<feBlend mode="normal" in2="BackgroundImageFix" result="effect1_dropShadow_1105_32165"/>
<feBlend mode="normal" in="SourceGraphic" in2="effect1_dropShadow_1105_32165" result="shape"/>
</filter>
<filter id="filter1_d_1105_32165" x="-15.208" y="8.95605" width="66.4922" height="73.7217" filterUnits="userSpaceOnUse" color-interpolation-filters="sRGB">
<feFlood flood-opacity="0" result="BackgroundImageFix"/>
<feColorMatrix in="SourceAlpha" type="matrix" values="0 0 0 0 0 0 0 0 0 0 0 0 0 0 0 0 0 0 127 0" result="hardAlpha"/>
<feOffset dy="11"/>
<feGaussianBlur stdDeviation="11"/>
<feColorMatrix type="matrix" values="0 0 0 0 0 0 0 0 0 0 0 0 0 0 0 0 0 0 0.27 0"/>
<feBlend mode="normal" in2="BackgroundImageFix" result="effect1_dropShadow_1105_32165"/>
<feBlend mode="normal" in="SourceGraphic" in2="effect1_dropShadow_1105_32165" result="shape"/>
</filter>
<filter id="filter2_d_1105_32165" x="50.9219" y="8.95605" width="66.4922" height="73.7217" filterUnits="userSpaceOnUse" color-interpolation-filters="sRGB">
<feFlood flood-opacity="0" result="BackgroundImageFix"/>
<feColorMatrix in="SourceAlpha" type="matrix" values="0 0 0 0 0 0 0 0 0 0 0 0 0 0 0 0 0 0 127 0" result="hardAlpha"/>
<feOffset dy="11"/>
<feGaussianBlur stdDeviation="11"/>
<feColorMatrix type="matrix" values="0 0 0 0 0 0 0 0 0 0 0 0 0 0 0 0 0 0 0.27 0"/>
<feBlend mode="normal" in2="BackgroundImageFix" result="effect1_dropShadow_1105_32165"/>
<feBlend mode="normal" in="SourceGraphic" in2="effect1_dropShadow_1105_32165" result="shape"/>
</filter>
<linearGradient id="paint0_linear_1105_32165" x1="51.3359" y1="34.6164" x2="51.3359" y2="32.6966" gradientUnits="userSpaceOnUse">
<stop stop-color="#8E94A7"/>
<stop offset="0.9913" stop-color="#6C707C"/>
</linearGradient>
<linearGradient id="paint1_linear_1105_32165" x1="18.0579" y1="34.6944" x2="18.0579" y2="33.3671" gradientUnits="userSpaceOnUse">
<stop stop-color="#8E94A7"/>
<stop offset="0.9913" stop-color="#6C707C"/>
</linearGradient>
<linearGradient id="paint2_linear_1105_32165" x1="84.1897" y1="34.6944" x2="84.1897" y2="33.3671" gradientUnits="userSpaceOnUse">
<stop stop-color="#8E94A7"/>
<stop offset="0.9913" stop-color="#6C707C"/>
</linearGradient>
</defs>
</svg>
