<svg width="20" height="20" viewBox="0 0 20 20" fill="none" xmlns="http://www.w3.org/2000/svg">
<path fill-rule="evenodd" clip-rule="evenodd" d="M12.8492 3.06424C13.6015 2.31192 14.8213 2.31192 15.5736 3.06424L16.9358 4.42642C17.6881 5.17874 17.6881 6.39848 16.9358 7.1508L15.728 8.35856C15.6332 8.31161 15.5334 8.26085 15.43 8.20639C14.7338 7.83988 13.9077 7.32547 13.2911 6.70891C12.6746 6.09235 12.1602 5.26621 11.7936 4.57002C11.7392 4.46658 11.6884 4.36681 11.6414 4.27199L12.8492 3.06424ZM12.4072 7.5928C13.1368 8.32239 14.0647 8.89662 14.7996 9.28701L10.05 14.0365C9.7553 14.3313 9.37291 14.5225 8.96028 14.5814L6.09969 14.9901C5.464 15.0809 4.91913 14.536 5.00994 13.9003L5.41859 11.0397C5.47754 10.6271 5.66873 10.2447 5.96347 9.94997L10.713 5.20044C11.1034 5.93529 11.6776 6.86318 12.4072 7.5928ZM3.125 16.25C2.77982 16.25 2.5 16.5298 2.5 16.875C2.5 17.2202 2.77982 17.5 3.125 17.5H16.875C17.2202 17.5 17.5 17.2202 17.5 16.875C17.5 16.5298 17.2202 16.25 16.875 16.25H3.125Z" fill="white" fill-opacity="0.64"/>
</svg>
