<svg width="41" height="40" viewBox="0 0 41 40" fill="none" xmlns="http://www.w3.org/2000/svg">
<g filter="url(#filter0_b_651_44529)">
<rect x="0.25" width="40" height="40" rx="20" fill="url(#paint0_linear_651_44529)"/>
<rect x="0.5" y="0.25" width="39.5" height="39.5" rx="19.75" stroke="url(#paint1_linear_651_44529)" stroke-width="0.5"/>
<path fill-rule="evenodd" clip-rule="evenodd" d="M22.25 15C22.25 17.2091 20.4591 19 18.25 19C16.0409 19 14.25 17.2091 14.25 15C14.25 12.7909 16.0409 11 18.25 11C20.4591 11 22.25 12.7909 22.25 15ZM25.25 25C25.25 27.2091 22.116 29 18.25 29C14.384 29 11.25 27.2091 11.25 25C11.25 22.7909 14.384 21 18.25 21C22.116 21 25.25 22.7909 25.25 25ZM26.25 20.75C25.8358 20.75 25.5 20.4142 25.5 20V18.75H24.25C23.8358 18.75 23.5 18.4142 23.5 18C23.5 17.5858 23.8358 17.25 24.25 17.25H25.5V16C25.5 15.5858 25.8358 15.25 26.25 15.25C26.6642 15.25 27 15.5858 27 16V17.25H28.25C28.6642 17.25 29 17.5858 29 18C29 18.4142 28.6642 18.75 28.25 18.75H27V20C27 20.4142 26.6642 20.75 26.25 20.75Z" fill="url(#paint2_linear_651_44529)"/>
</g>
<defs>
<filter id="filter0_b_651_44529" x="-1.75" y="-2" width="44" height="44" filterUnits="userSpaceOnUse" color-interpolation-filters="sRGB">
<feFlood flood-opacity="0" result="BackgroundImageFix"/>
<feGaussianBlur in="BackgroundImageFix" stdDeviation="1"/>
<feComposite in2="SourceAlpha" operator="in" result="effect1_backgroundBlur_651_44529"/>
<feBlend mode="normal" in="SourceGraphic" in2="effect1_backgroundBlur_651_44529" result="shape"/>
</filter>
<linearGradient id="paint0_linear_651_44529" x1="9.79546" y1="-3.50978e-08" x2="16.1591" y2="41.8182" gradientUnits="userSpaceOnUse">
<stop stop-color="white" stop-opacity="0.16"/>
<stop offset="0.819009" stop-color="white" stop-opacity="0.04"/>
<stop offset="1" stop-color="white" stop-opacity="0.12"/>
</linearGradient>
<linearGradient id="paint1_linear_651_44529" x1="7.52273" y1="5" x2="29.3409" y2="38.6364" gradientUnits="userSpaceOnUse">
<stop stop-color="white" stop-opacity="0.54"/>
<stop offset="0.208078" stop-color="white" stop-opacity="0.12"/>
<stop offset="1" stop-color="white" stop-opacity="0"/>
</linearGradient>
<linearGradient id="paint2_linear_651_44529" x1="20.125" y1="11" x2="20.125" y2="29" gradientUnits="userSpaceOnUse">
<stop stop-color="#D1D1D1"/>
<stop offset="1" stop-color="#4D4D4D"/>
</linearGradient>
</defs>
</svg>
