<svg width="41" height="40" viewBox="0 0 41 40" fill="none" xmlns="http://www.w3.org/2000/svg">
<g filter="url(#filter0_b_651_44514)">
<rect x="0.75" width="40" height="40" rx="20" fill="url(#paint0_linear_651_44514)"/>
<rect x="1" y="0.25" width="39.5" height="39.5" rx="19.75" stroke="url(#paint1_linear_651_44514)" stroke-width="0.5"/>
<path fill-rule="evenodd" clip-rule="evenodd" d="M24.169 11.6771C25.0718 10.7743 26.5355 10.7743 27.4383 11.6771L29.0729 13.3117C29.9757 14.2145 29.9757 15.6782 29.0729 16.581L27.6236 18.0303C27.5098 17.9739 27.3901 17.913 27.266 17.8477C26.4306 17.4079 25.4392 16.7906 24.6993 16.0507C23.9595 15.3108 23.3422 14.3194 22.9024 13.484C22.837 13.3599 22.7761 13.2402 22.7197 13.1264L24.169 11.6771ZM23.6387 17.1114C24.5142 17.9869 25.6277 18.6759 26.5095 19.1444L20.81 24.8438C20.4564 25.1975 19.9975 25.4269 19.5023 25.4977L16.0696 25.9881C15.3068 26.097 14.653 25.4432 14.7619 24.6804L15.2523 21.2477C15.3231 20.7525 15.5525 20.2936 15.9062 19.94L21.6056 14.2405C22.0741 15.1223 22.7631 16.2358 23.6387 17.1114ZM12.5 27.5C12.0858 27.5 11.75 27.8358 11.75 28.25C11.75 28.6642 12.0858 29 12.5 29H29C29.4142 29 29.75 28.6642 29.75 28.25C29.75 27.8358 29.4142 27.5 29 27.5H12.5Z" fill="url(#paint2_linear_651_44514)"/>
</g>
<defs>
<filter id="filter0_b_651_44514" x="-1.25" y="-2" width="44" height="44" filterUnits="userSpaceOnUse" color-interpolation-filters="sRGB">
<feFlood flood-opacity="0" result="BackgroundImageFix"/>
<feGaussianBlur in="BackgroundImageFix" stdDeviation="1"/>
<feComposite in2="SourceAlpha" operator="in" result="effect1_backgroundBlur_651_44514"/>
<feBlend mode="normal" in="SourceGraphic" in2="effect1_backgroundBlur_651_44514" result="shape"/>
</filter>
<linearGradient id="paint0_linear_651_44514" x1="10.2955" y1="-3.50978e-08" x2="16.6591" y2="41.8182" gradientUnits="userSpaceOnUse">
<stop stop-color="white" stop-opacity="0.16"/>
<stop offset="0.819009" stop-color="white" stop-opacity="0.04"/>
<stop offset="1" stop-color="white" stop-opacity="0.12"/>
</linearGradient>
<linearGradient id="paint1_linear_651_44514" x1="8.02273" y1="5" x2="29.8409" y2="38.6364" gradientUnits="userSpaceOnUse">
<stop stop-color="white" stop-opacity="0.54"/>
<stop offset="0.208078" stop-color="white" stop-opacity="0.12"/>
<stop offset="1" stop-color="white" stop-opacity="0"/>
</linearGradient>
<linearGradient id="paint2_linear_651_44514" x1="20.75" y1="11" x2="20.75" y2="29" gradientUnits="userSpaceOnUse">
<stop stop-color="#D1D1D1"/>
<stop offset="1" stop-color="#4D4D4D"/>
</linearGradient>
</defs>
</svg>
