<svg width="25" height="24" viewBox="0 0 25 24" fill="none" xmlns="http://www.w3.org/2000/svg">
<path fill-rule="evenodd" clip-rule="evenodd" d="M11.75 3H13.75C18.7206 3 22.75 7.02944 22.75 12C22.75 16.9706 18.7206 21 13.75 21H6.75C4.54086 21 2.75 19.2091 2.75 17V12C2.75 7.02944 6.77944 3 11.75 3ZM12.75 13C13.3023 13 13.75 12.5523 13.75 12C13.75 11.4477 13.3023 11 12.75 11C12.1977 11 11.75 11.4477 11.75 12C11.75 12.5523 12.1977 13 12.75 13ZM17.75 12C17.75 12.5523 17.3023 13 16.75 13C16.1977 13 15.75 12.5523 15.75 12C15.75 11.4477 16.1977 11 16.75 11C17.3023 11 17.75 11.4477 17.75 12ZM8.75 13C9.30228 13 9.75 12.5523 9.75 12C9.75 11.4477 9.30228 11 8.75 11C8.19772 11 7.75 11.4477 7.75 12C7.75 12.5523 8.19772 13 8.75 13Z" fill="#009874"/>
</svg>
