<svg width="44" height="44" viewBox="0 0 44 44" fill="none" xmlns="http://www.w3.org/2000/svg">
<path fill-rule="evenodd" clip-rule="evenodd" d="M12.75 21.5C12.75 26.3325 16.6675 30.25 21.5 30.25C26.3325 30.25 30.25 26.3325 30.25 21.5C30.25 16.6675 26.3325 12.75 21.5 12.75C16.6675 12.75 12.75 16.6675 12.75 21.5ZM21.5 31.75C15.8391 31.75 11.25 27.1609 11.25 21.5C11.25 15.8391 15.8391 11.25 21.5 11.25C27.1609 11.25 31.75 15.8391 31.75 21.5C31.75 24.0605 30.8111 26.4017 29.2589 28.1982L32.5303 31.4697C32.8232 31.7626 32.8232 32.2374 32.5303 32.5303C32.2374 32.8232 31.7626 32.8232 31.4697 32.5303L28.1982 29.2589C26.4017 30.8111 24.0605 31.75 21.5 31.75Z" fill="white" fill-opacity="0.9"/>
</svg>
